<svg xmlns:dc="http://purl.org/dc/elements/1.1/" xmlns:cc="http://creativecommons.org/ns#" xmlns:rdf="http://www.w3.org/1999/02/22-rdf-syntax-ns#" xmlns:svg="http://www.w3.org/2000/svg" xmlns="http://www.w3.org/2000/svg" xmlns:xlink="http://www.w3.org/1999/xlink" xmlns:sodipodi="http://sodipodi.sourceforge.net/DTD/sodipodi-0.dtd" xmlns:inkscape="http://www.inkscape.org/namespaces/inkscape" width="1280" height="1280" viewBox="0 0 1280 1280" version="1.1" id="svg5528" inkscape:version="1.0.2-2 (e86c870879, 2021-01-15)" sodipodi:docname="commandos.svg" inkscape:export-filename="D:\_dev\_git\Playground\commandos\logo\commandos.png" inkscape:export-xdpi="96" inkscape:export-ydpi="96">
    <defs id="defs5522">
        <linearGradient inkscape:collect="always" id="linearGradient1705">
            <stop style="stop-color:#0093d1;stop-opacity:1" offset="0" id="stop1697" />
            <stop style="stop-color:#05b4ff;stop-opacity:1" offset="0.40291399" id="stop1699" />
            <stop style="stop-color:#38c3ff;stop-opacity:1" offset="0.65959454" id="stop1701" />
            <stop style="stop-color:#6bd2ff;stop-opacity:1" offset="1" id="stop1703" />
        </linearGradient>
        <linearGradient inkscape:collect="always" xlink:href="#linearGradient4008" id="linearGradient4000" gradientUnits="userSpaceOnUse" gradientTransform="matrix(0.48816238,0,0,0.48816222,-22108.366,23681.261)" x1="45572.824" y1="-46316.227" x2="47621.32" y2="-48031.113" />
        <linearGradient inkscape:collect="always" id="linearGradient4008">
            <stop style="stop-color:#0093d1;stop-opacity:1" offset="0" id="stop4002" />
            <stop style="stop-color:#05b4ff;stop-opacity:1" offset="0.40291399" id="stop4004" />
            <stop style="stop-color:#51b9e6;stop-opacity:1" offset="0.65959454" id="stop4010" />
            <stop style="stop-color:#6bd2ff;stop-opacity:1" offset="1" id="stop4006" />
        </linearGradient>
        <linearGradient inkscape:collect="always" xlink:href="#linearGradient1705" id="linearGradient1638" gradientUnits="userSpaceOnUse" gradientTransform="matrix(0.48816238,0,0,0.48816222,-22108.366,23681.261)" x1="45935.699" y1="-46301.594" x2="47630.098" y2="-47890.645" />
        <linearGradient inkscape:collect="always" xlink:href="#linearGradient1705" id="linearGradient1820" gradientUnits="userSpaceOnUse" gradientTransform="matrix(0.48816238,0,0,0.48816222,-20415.152,22760.427)" x1="45935.699" y1="-46301.594" x2="47630.098" y2="-47890.645" />
    </defs>
    <sodipodi:namedview id="base" pagecolor="#ffffff" bordercolor="#666666" borderopacity="1.0" inkscape:pageopacity="0.0" inkscape:pageshadow="2" inkscape:zoom="0.24748737" inkscape:cx="37.075135" inkscape:cy="807.69733" inkscape:document-units="px" inkscape:current-layer="layer2" inkscape:document-rotation="0" showgrid="false" units="px" scale-x="1" inkscape:pagecheckerboard="true" inkscape:snap-page="true" showguides="true" inkscape:guide-bbox="true" inkscape:window-width="2560" inkscape:window-height="1377" inkscape:window-x="-8" inkscape:window-y="-8" inkscape:window-maximized="1" inkscape:snap-nodes="true" inkscape:snap-grids="false" inkscape:snap-to-guides="false" />
    <metadata id="metadata5525">
        <rdf:RDF>
            <cc:Work rdf:about="">
                <dc:format>image/svg+xml</dc:format>
                <dc:type rdf:resource="http://purl.org/dc/dcmitype/StillImage" />
                <dc:title></dc:title>
            </cc:Work>
        </rdf:RDF>
    </metadata>
    <g inkscape:groupmode="layer" id="layer2" inkscape:label="Layer 2">
        <path sodipodi:type="star" style="display:inline;fill:#ffffff;fill-opacity:1;stroke-width:0.48379" id="path3964" sodipodi:sides="6" sodipodi:cx="664.29769" sodipodi:cy="645.46095" sodipodi:r1="492.06448" sodipodi:r2="426.14032" sodipodi:arg1="0.52359878" sodipodi:arg2="1.0471976" inkscape:flatsided="true" inkscape:rounded="0" inkscape:randomized="0" inkscape:transform-center-x="-2.5840255e-05" inkscape:transform-center-y="0.00014104787" d="M 1090.438,891.49318 664.29767,1137.5254 238.15732,891.49318 238.15733,399.42869 664.29767,153.39645 1090.438,399.4287 Z" />
        <path id="path2824-3-4-74-2-7-6" style="display:inline;fill:url(#linearGradient1638);fill-opacity:1;stroke:none;stroke-width:0.488161" inkscape:transform-center-x="2.5722973e-06" inkscape:transform-center-y="-1.194921e-05" d="M 640.19727 20.408203 A 84.552191 84.552166 0 0 0 597.72461 31.736328 L 134.36523 299.25586 A 84.552205 84.55218 0 0 0 92.089844 372.48047 L 92.089844 907.52344 A 84.552205 84.55218 0 0 0 134.36523 980.74609 L 597.72461 1248.2676 A 84.552191 84.552166 0 0 0 682.27539 1248.2676 L 1145.6348 980.74609 A 84.552205 84.55218 0 0 0 1187.9102 907.52344 L 1187.9102 372.48047 A 84.552205 84.55218 0 0 0 1145.6348 299.25586 L 682.27539 31.736328 A 84.552191 84.552166 0 0 0 640.19727 20.408203 z M 639.58008 241.33008 C 653.70106 241.21038 667.94657 243.43928 681.07031 248.76367 C 681.60632 249.03756 682.14334 249.31587 682.55273 248.69727 C 754.12407 290.02134 825.69303 331.34855 897.26367 372.67383 C 906.66079 377.61925 914.93476 384.75442 920.97656 393.50586 C 930.96148 407.71973 934.69565 426.0719 931.29688 443.08398 C 929.82547 450.99834 926.53736 458.46242 922.42188 465.3418 C 915.85709 477.51049 905.35892 487.53491 892.82617 493.39844 C 874.76768 502.04819 852.64347 501.53512 834.99609 492.08203 C 784.4642 462.99986 733.97355 433.84593 683.48828 404.68164 C 679.58555 402.50549 675.82922 400.04697 671.76172 398.17969 C 661.94024 393.74587 651.06084 392.04592 640.33789 392.13672 C 629.45993 392.3002 618.39874 394.18156 608.63281 399.15625 C 558.22042 428.13388 507.90294 457.27753 457.51562 486.29883 C 453.02891 488.97059 448.3102 491.30179 444.18555 494.53711 C 435.66227 501.13724 428.99705 509.89271 423.92383 519.34766 C 419.09522 528.41908 415.66452 538.41746 415.16211 548.74219 C 415.11461 603.80957 415.12105 658.87751 415.12305 713.94531 C 415.14065 719.98625 415.10062 726.02775 415.13672 732.06836 C 415.13154 738.08754 416.33832 744.0432 418.16797 749.75781 C 418.34049 750.28121 418.60101 751.04789 418.71875 751.41992 C 420.67831 757.0425 423.26769 762.43776 426.35938 767.52344 C 431.87259 776.46876 438.82491 784.7627 447.70508 790.52344 C 499.7957 820.71935 551.98193 850.75144 604.10352 880.89453 C 611.05426 885.23609 618.95307 887.8917 627.01562 889.21094 C 629.09616 889.55677 631.58784 889.86723 633.71289 890.03711 C 635.9904 890.22831 638.25812 890.3358 640.5957 890.3418 C 642.03746 890.3524 643.65649 890.31606 644.96875 890.25586 C 654.9394 889.75119 665.02089 887.79392 673.92188 883.11914 C 725.94005 853.19945 777.89579 823.16697 829.87695 793.18164 C 837.69422 788.27259 846.48244 784.85887 855.62695 783.50391 C 872.19446 780.91738 889.65912 785.25476 903.2168 795.08594 C 911.11637 800.69354 917.51283 808.25085 922.23438 816.67773 C 929.50336 828.51416 932.89517 842.70104 931.64258 856.54297 C 930.00074 876.45959 918.44609 895.27388 901.43359 905.75586 C 836.64591 943.21648 771.83653 980.64135 707.02148 1018.0547 C 699.81878 1022.0708 692.87053 1026.55 685.45703 1030.1797 C 671.26394 1036.8278 655.4757 1039.6409 639.86133 1039.5117 C 623.49823 1039.3432 606.92236 1036.0875 592.40234 1028.332 C 506.98205 979.06183 421.58035 929.75765 336.17969 880.45312 C 327.73737 875.86103 319.6692 870.48333 312.63672 863.9043 C 293.0771 845.88222 281.30017 819.76026 280.60742 793.18555 C 280.56372 698.60698 280.55964 604.02794 280.55664 509.44922 C 280.6902 501.02552 280.27206 492.58864 280.84766 484.17578 C 282.20097 468.43024 287.74691 453.23661 295.76953 439.69141 C 304.10233 425.70183 315.1961 413.07449 329.11914 404.44922 C 410.24534 357.56598 491.38251 310.70261 572.54102 263.875 C 580.05263 259.66621 587.34154 255.05564 595.01758 251.14453 C 608.81816 244.36394 624.2808 241.50483 639.58008 241.33008 z " />
        <path id="path3964-0-1" style="display:inline;fill:#ff0000;fill-opacity:1;stroke-width:0.415322" inkscape:transform-center-x="1.919139e-05" inkscape:transform-center-y="0.00012543136" d="m 2614.4801,330.90934 c -15.2992,0.17475 -30.7615,3.03372 -44.562,9.81431 -7.6761,3.91111 -14.9651,8.52238 -22.4767,12.73117 -81.1585,46.82761 -162.2967,93.69087 -243.4229,140.57411 -13.923,8.62527 -25.0161,21.25216 -33.3489,35.24174 -8.0226,13.5452 -13.5692,28.73964 -14.9225,44.48518 -0.5756,8.41286 -0.1568,16.84971 -0.2903,25.27341 0,94.57872 0.01,189.15767 0.051,283.73624 0.6927,26.57471 12.4698,52.69523 32.0294,70.71731 7.0325,6.57903 15.1013,11.95784 23.5436,16.54994 85.4007,49.30455 170.8023,98.60795 256.2226,147.87815 14.52,7.7555 31.0952,11.0116 47.4583,11.1801 15.6144,0.1292 31.4033,-2.6842 45.5964,-9.3323 7.4135,-3.6297 14.3615,-8.1095 21.5642,-12.1256 64.8151,-37.4134 129.6244,-74.8382 194.4121,-112.29879 17.0125,-10.48198 28.566,-29.2952 30.2079,-49.21182 1.2526,-13.84193 -2.1392,-28.02901 -9.4082,-39.86544 -4.7216,-8.42688 -11.1169,-15.98473 -19.0164,-21.59233 -13.5577,-9.83118 -31.0223,-14.16729 -47.5898,-11.58076 -9.1446,1.35496 -17.9341,4.7686 -25.7513,9.67765 -51.9812,29.98533 -103.9365,60.01645 -155.9547,89.93614 -8.9009,4.67478 -18.9823,6.63218 -28.953,7.13685 -1.3122,0.0602 -2.9315,0.097 -4.3732,0.0864 -2.3376,-0.006 -4.6053,-0.11295 -6.8828,-0.30415 -2.125,-0.16988 -4.6164,-0.4808 -6.6969,-0.82663 -8.0626,-1.31924 -15.9614,-3.97455 -22.9121,-8.31611 -52.1216,-30.14309 -104.3075,-60.1756 -156.3981,-90.37151 -8.8802,-5.76074 -15.8324,-14.05385 -21.3456,-22.99917 -3.0917,-5.08568 -5.6815,-10.48165 -7.6411,-16.10423 -0.1177,-0.37203 -0.3786,-1.13949 -0.5511,-1.66289 -1.8296,-5.71461 -3.0363,-11.6698 -3.0311,-17.68898 -0.036,-6.04061 0,-12.0818 -0.014,-18.12274 -0,-55.0678 -0.01,-110.13627 0.039,-165.20365 0.5024,-10.32473 3.9321,-20.32266 8.7607,-29.39408 5.0732,-9.45495 11.7388,-18.21024 20.2621,-24.81037 4.1246,-3.23532 8.8434,-5.56634 13.3302,-8.2381 50.3873,-29.0213 100.7051,-58.16523 151.1174,-87.14286 9.766,-4.97469 20.8263,-6.85572 31.7042,-7.0192 10.723,-0.0908 21.6033,1.60882 31.4248,6.04264 4.0675,1.86728 7.8233,4.32489 11.726,6.50104 50.4853,29.16429 100.9761,58.31963 151.508,87.4018 17.6474,9.45309 39.7714,9.96639 57.8299,1.31664 12.5328,-5.86353 23.0313,-15.88938 29.5961,-28.05807 4.1155,-6.87938 7.404,-14.34187 8.8754,-22.25623 3.3987,-17.01208 -0.3355,-35.36583 -10.3204,-49.5797 -6.0418,-8.75144 -14.3154,-15.88594 -23.7125,-20.83136 -71.5706,-41.32528 -143.1402,-82.65247 -214.7115,-123.97654 -0.4094,0.6186 -0.9464,0.34029 -1.4825,0.0664 -13.1237,-5.32439 -27.3692,-7.55329 -41.4902,-7.43359 z" />
        <path id="path2824-3-4-74-2-7-6-8" style="display:inline;fill:url(#linearGradient1820);fill-opacity:1;stroke:none;stroke-width:0.488161" inkscape:transform-center-x="2.5722973e-06" d="m 2290.9379,-889.09872 -463.3588,267.52091 a 84.552205,84.55218 0 0 0 -42.2761,73.22342 v 535.043639 a 84.552205,84.55218 0 0 0 42.2761,73.2234 l 463.3588,267.520811 a 84.552191,84.552166 0 0 0 84.5522,0 L 2838.8489,59.912649 a 84.552205,84.55218 0 0 0 42.2761,-73.2234 V -548.35439 a 84.552205,84.55218 0 0 0 -42.2761,-73.22342 l -463.3588,-267.52091 a 84.552191,84.552166 0 0 0 -84.5522,0 z m 85.2329,235.67029 c 69.7236,40.2547 139.4464,80.50941 209.1698,120.76412 23.3486,13.47972 31.3479,43.33588 17.8669,66.6828 l -2.4911,4.31551 c -13.4811,23.34691 -43.338,31.34877 -66.6873,17.86903 -52.4474,-30.27497 -104.8943,-60.54811 -157.3417,-90.82307 -23.3493,-13.47974 -61.2063,-13.47974 -84.5556,0 -52.5092,30.31003 -105.0189,60.6219 -157.5281,90.93194 -23.3493,13.47973 -42.2778,46.26209 -42.2778,73.22155 v 181.8399 c 0,26.95947 18.9285,59.74183 42.278,73.21972 52.4493,30.276789 104.8976,60.553679 157.3469,90.830479 23.3494,13.4779 61.2064,13.4779 84.5557,0 52.5092,-30.31003 105.0189,-60.62373 157.5281,-90.933839 23.3493,-13.4797 53.2059,-5.47787 66.6866,17.869069 0.6167,1.06827 1.2337,2.13843 1.8505,3.20671 13.4807,23.34684 5.4809,53.20296 -17.8674,66.68276 -69.4808,40.1145 -138.9621,80.2308 -208.4429,120.34535 -23.3484,13.479601 -61.2039,13.479601 -84.5522,0 l -259.6627,-149.91737 a 84.552289,84.552264 0 0 1 -42.2761,-73.223409 v -299.79219 c 0,-26.95947 18.9277,-59.74368 42.2761,-73.22341 86.5243,-49.95584 173.0479,-99.90798 259.5722,-149.8638 23.3483,-13.47974 61.2037,-13.47974 84.5521,0 z m -84.7838,118.37849 c -52.2604,30.14952 -104.5381,60.36361 -156.8079,90.54633 -23.3472,13.48158 -23.3487,13.47973 0,0 52.2731,-30.1735 104.5467,-60.35069 156.8198,-90.52419 23.3493,-13.47973 23.3406,-13.4945 -0.019,-0.0185 z" inkscape:transform-center-y="-1.194921e-05" />
    </g>
</svg>
