<svg version="1.1" viewBox="0 0 1280 1280" xmlns="http://www.w3.org/2000/svg" xmlns:xlink="http://www.w3.org/1999/xlink">
 <defs>
  <linearGradient id="linearGradient1638" x1="45936" x2="47630" y1="-46302" y2="-47891" gradientTransform="matrix(.48816 0 0 .48816 -22108 23681)" gradientUnits="userSpaceOnUse">
   <stop stop-color="#0093d1" offset="0"/>
   <stop stop-color="#05b4ff" offset=".40291"/>
   <stop stop-color="#38c3ff" offset=".65959"/>
   <stop stop-color="#6bd2ff" offset="1"/>
  </linearGradient>
 </defs>
 <g>
  <path d="m1090.4 891.49-426.14 246.03-426.14-246.03 1e-5 -492.06 426.14-246.03 426.14 246.03z" fill="#fff" stroke-width=".48379"/>
  <path d="m640.2 20.408a84.552 84.552 0 0 0-42.473 11.328l-463.36 267.52a84.552 84.552 0 0 0-42.275 73.225v535.04a84.552 84.552 0 0 0 42.275 73.223l463.36 267.52a84.552 84.552 0 0 0 84.551 0l463.36-267.52a84.552 84.552 0 0 0 42.275-73.223v-535.04a84.552 84.552 0 0 0-42.275-73.225l-463.36-267.52a84.552 84.552 0 0 0-42.078-11.328zm-0.61719 220.92c14.121-0.1197 28.366 2.1092 41.49 7.4336 0.53601 0.27389 1.073 0.5522 1.4824-0.0664 71.571 41.324 143.14 82.651 214.71 123.98 9.3971 4.9454 17.671 12.081 23.713 20.832 9.9849 14.214 13.719 32.566 10.32 49.578-1.4714 7.9144-4.7595 15.378-8.875 22.258-6.5648 12.169-17.063 22.193-29.596 28.057-18.058 8.6498-40.183 8.1367-57.83-1.3164-50.532-29.082-101.02-58.236-151.51-87.4-3.9027-2.1762-7.6591-4.6347-11.727-6.502-9.8215-4.4338-20.701-6.1338-31.424-6.043-10.878 0.16348-21.939 2.0448-31.705 7.0195-50.412 28.978-100.73 58.121-151.12 87.143-4.4867 2.6718-9.2054 5.003-13.33 8.2383-8.5233 6.6001-15.188 15.356-20.262 24.811-4.8286 9.0714-8.2593 19.07-8.7617 29.395-0.0475 55.067-0.04106 110.14-0.03906 165.2 0.0176 6.0409-0.02243 12.082 0.01367 18.123-0.00518 6.0192 1.2016 11.975 3.0312 17.689 0.17252 0.5234 0.43304 1.2901 0.55078 1.6621 1.9596 5.6226 4.5489 11.018 7.6406 16.104 5.5132 8.9453 12.466 17.239 21.346 23 52.091 30.196 104.28 60.228 156.4 90.371 6.9507 4.3416 14.85 6.9972 22.912 8.3164 2.0805 0.34583 4.5722 0.65629 6.6973 0.82617 2.2775 0.1912 4.5452 0.29869 6.8828 0.30469 1.4418 0.0106 3.0608-0.02574 4.373-0.08594 9.9706-0.50467 20.052-2.4619 28.953-7.1367 52.018-29.92 103.97-59.952 155.96-89.938 7.8173-4.909 16.605-8.3228 25.75-9.6777 16.568-2.5865 34.032 1.7508 47.59 11.582 7.8996 5.6076 14.296 13.165 19.018 21.592 7.269 11.836 10.661 26.023 9.4082 39.865-1.6418 19.917-13.196 38.731-30.209 49.213-64.788 37.461-129.6 74.885-194.41 112.3-7.2027 4.0161-14.151 8.4953-21.564 12.125-14.193 6.6481-29.981 9.4612-45.596 9.332-16.363-0.1685-32.939-3.4242-47.459-11.18-85.42-49.27-170.82-98.574-256.22-147.88-8.4423-4.5921-16.51-9.9698-23.543-16.549-19.56-18.022-31.337-44.144-32.029-70.719-0.0437-94.579-0.04778-189.16-0.05078-283.74 0.13356-8.4237-0.28458-16.861 0.29102-25.273 1.3533-15.746 6.8992-30.939 14.922-44.484 8.3328-13.99 19.427-26.617 33.35-35.242 81.126-46.883 162.26-93.747 243.42-140.57 7.5116-4.2088 14.801-8.8194 22.477-12.73 13.801-6.7806 29.263-9.6397 44.562-9.8144z" fill="url(#linearGradient1638)"/>
 </g>
</svg>
