<?xml version="1.0" encoding="UTF-8" standalone="no"?>
<svg
   xmlns:dc="http://purl.org/dc/elements/1.1/"
   xmlns:cc="http://creativecommons.org/ns#"
   xmlns:rdf="http://www.w3.org/1999/02/22-rdf-syntax-ns#"
   xmlns:svg="http://www.w3.org/2000/svg"
   xmlns="http://www.w3.org/2000/svg"
   xmlns:xlink="http://www.w3.org/1999/xlink"
   width="1280"
   height="1280"
   viewBox="0 0 1280 1280"
   version="1.1"
   id="svg5528">
  <defs
     id="defs5522">
    <linearGradient
       id="linearGradient1705">
      <stop
         style="stop-color:#0093d1;stop-opacity:1"
         offset="0"
         id="stop1697" />
      <stop
         style="stop-color:#05b4ff;stop-opacity:1"
         offset="0.40291399"
         id="stop1699" />
      <stop
         style="stop-color:#38c3ff;stop-opacity:1"
         offset="0.65959454"
         id="stop1701" />
      <stop
         style="stop-color:#6bd2ff;stop-opacity:1"
         offset="1"
         id="stop1703" />
    </linearGradient>
    <linearGradient
       xlink:href="#linearGradient4008"
       id="linearGradient4000"
       gradientUnits="userSpaceOnUse"
       gradientTransform="matrix(0.48816238,0,0,0.48816222,-22108.366,23681.261)"
       x1="45572.824"
       y1="-46316.227"
       x2="47621.32"
       y2="-48031.113" />
    <linearGradient
       id="linearGradient4008">
      <stop
         style="stop-color:#0093d1;stop-opacity:1"
         offset="0"
         id="stop4002" />
      <stop
         style="stop-color:#05b4ff;stop-opacity:1"
         offset="0.40291399"
         id="stop4004" />
      <stop
         style="stop-color:#51b9e6;stop-opacity:1"
         offset="0.65959454"
         id="stop4010" />
      <stop
         style="stop-color:#6bd2ff;stop-opacity:1"
         offset="1"
         id="stop4006" />
    </linearGradient>
    <linearGradient
       xlink:href="#linearGradient1705"
       id="linearGradient1638"
       gradientUnits="userSpaceOnUse"
       gradientTransform="matrix(0.48816238,0,0,0.48816222,-22108.366,23681.261)"
       x1="45935.699"
       y1="-46301.594"
       x2="47630.098"
       y2="-47890.645" />
  </defs>
  <metadata
     id="metadata5525">
    <rdf:RDF>
      <cc:Work
         rdf:about="">
        <dc:format>image/svg+xml</dc:format>
        <dc:type
           rdf:resource="http://purl.org/dc/dcmitype/StillImage" />
        <dc:title></dc:title>
      </cc:Work>
    </rdf:RDF>
  </metadata>
  <g
     id="layer2">
    <path
       style="display:inline;fill:#ffffff;fill-opacity:1;stroke-width:0.48379"
       id="path3964"
       d="M 1090.438,891.49318 664.29767,1137.5254 238.15732,891.49318 238.15733,399.42869 664.29767,153.39645 1090.438,399.4287 Z" />
    <path
       id="path2824-3-4-74-2-7-6"
       style="display:inline;fill:url(#linearGradient1638);fill-opacity:1;stroke:none;stroke-width:0.488161"
       d="M 640.19727 20.408203 A 84.552191 84.552166 0 0 0 597.72461 31.736328 L 134.36523 299.25586 A 84.552205 84.55218 0 0 0 92.089844 372.48047 L 92.089844 907.52344 A 84.552205 84.55218 0 0 0 134.36523 980.74609 L 597.72461 1248.2676 A 84.552191 84.552166 0 0 0 682.27539 1248.2676 L 1145.6348 980.74609 A 84.552205 84.55218 0 0 0 1187.9102 907.52344 L 1187.9102 372.48047 A 84.552205 84.55218 0 0 0 1145.6348 299.25586 L 682.27539 31.736328 A 84.552191 84.552166 0 0 0 640.19727 20.408203 z M 639.58008 241.33008 C 653.70106 241.21038 667.94657 243.43928 681.07031 248.76367 C 681.60632 249.03756 682.14334 249.31587 682.55273 248.69727 C 754.12407 290.02134 825.69303 331.34855 897.26367 372.67383 C 906.66079 377.61925 914.93476 384.75442 920.97656 393.50586 C 930.96148 407.71973 934.69565 426.0719 931.29688 443.08398 C 929.82547 450.99834 926.53736 458.46242 922.42188 465.3418 C 915.85709 477.51049 905.35892 487.53491 892.82617 493.39844 C 874.76768 502.04819 852.64347 501.53512 834.99609 492.08203 C 784.4642 462.99986 733.97355 433.84593 683.48828 404.68164 C 679.58555 402.50549 675.82922 400.04697 671.76172 398.17969 C 661.94024 393.74587 651.06084 392.04592 640.33789 392.13672 C 629.45993 392.3002 618.39874 394.18156 608.63281 399.15625 C 558.22042 428.13388 507.90294 457.27753 457.51562 486.29883 C 453.02891 488.97059 448.3102 491.30179 444.18555 494.53711 C 435.66227 501.13724 428.99705 509.89271 423.92383 519.34766 C 419.09522 528.41908 415.66452 538.41746 415.16211 548.74219 C 415.11461 603.80957 415.12105 658.87751 415.12305 713.94531 C 415.14065 719.98625 415.10062 726.02775 415.13672 732.06836 C 415.13154 738.08754 416.33832 744.0432 418.16797 749.75781 C 418.34049 750.28121 418.60101 751.04789 418.71875 751.41992 C 420.67831 757.0425 423.26769 762.43776 426.35938 767.52344 C 431.87259 776.46876 438.82491 784.7627 447.70508 790.52344 C 499.7957 820.71935 551.98193 850.75144 604.10352 880.89453 C 611.05426 885.23609 618.95307 887.8917 627.01562 889.21094 C 629.09616 889.55677 631.58784 889.86723 633.71289 890.03711 C 635.9904 890.22831 638.25812 890.3358 640.5957 890.3418 C 642.03746 890.3524 643.65649 890.31606 644.96875 890.25586 C 654.9394 889.75119 665.02089 887.79392 673.92188 883.11914 C 725.94005 853.19945 777.89579 823.16697 829.87695 793.18164 C 837.69422 788.27259 846.48244 784.85887 855.62695 783.50391 C 872.19446 780.91738 889.65912 785.25476 903.2168 795.08594 C 911.11637 800.69354 917.51283 808.25085 922.23438 816.67773 C 929.50336 828.51416 932.89517 842.70104 931.64258 856.54297 C 930.00074 876.45959 918.44609 895.27388 901.43359 905.75586 C 836.64591 943.21648 771.83653 980.64135 707.02148 1018.0547 C 699.81878 1022.0708 692.87053 1026.55 685.45703 1030.1797 C 671.26394 1036.8278 655.4757 1039.6409 639.86133 1039.5117 C 623.49823 1039.3432 606.92236 1036.0875 592.40234 1028.332 C 506.98205 979.06183 421.58035 929.75765 336.17969 880.45312 C 327.73737 875.86103 319.6692 870.48333 312.63672 863.9043 C 293.0771 845.88222 281.30017 819.76026 280.60742 793.18555 C 280.56372 698.60698 280.55964 604.02794 280.55664 509.44922 C 280.6902 501.02552 280.27206 492.58864 280.84766 484.17578 C 282.20097 468.43024 287.74691 453.23661 295.76953 439.69141 C 304.10233 425.70183 315.1961 413.07449 329.11914 404.44922 C 410.24534 357.56598 491.38251 310.70261 572.54102 263.875 C 580.05263 259.66621 587.34154 255.05564 595.01758 251.14453 C 608.81816 244.36394 624.2808 241.50483 639.58008 241.33008 z " />
  </g>
</svg>
