<svg xmlns="http://www.w3.org/2000/svg" width="1280" height="1280">
    <path d="M640.197 20.407a84.552 84.552 0 0 0-42.473 11.328l-463.359 267.52a84.552 84.552
    0 0 0-42.275 73.225v535.043a84.552 84.552 0 0 0 42.275 73.223l463.359 267.521a84.552 84.552
    0 0 0 84.551 0l463.359-267.521a84.552 84.552 0 0 0 42.275-73.223V372.479a84.552 84.552
    0 0 0-42.275-73.225L682.275 31.735a84.552 84.552 0 0 0-42.078-11.328zm-.617 220.922c14.121-.12
    28.366 2.109 41.49 7.434.536.274 1.073.552 1.482-.066l214.711 123.977c9.397 4.945 17.671
    12.081 23.713 20.832 9.985 14.214 13.719 32.566 10.32 49.578-1.471 7.914-4.76 15.378-8.875
    22.258-6.565 12.169-17.063 22.193-29.596 28.057-18.058 8.65-40.183
    8.137-57.83-1.316l-151.508-87.4c-3.903-2.176-7.659-4.635-11.727-6.502-9.822-4.434-20.701-6.134-31.424-6.043-10.878.163-21.939
    2.045-31.705 7.02l-151.117 87.143c-4.487 2.672-9.205 5.003-13.33 8.238-8.523 6.6-15.188 15.356-20.262 24.811-4.829 9.071-8.259
    19.07-8.762 29.395l-.039 165.203.014 18.123c-.01 6.019 1.202 11.975 3.031 17.689l.551 1.662c1.96 5.623 4.549 11.018 7.641 16.104
    5.513 8.945 12.466 17.239 21.346 23l156.398 90.371c6.951 4.342 14.85 6.997 22.912 8.316a84.32 84.32 0 0 0 6.697.826c2.278.191
    4.545.299 6.883.305 1.442.011 3.061-.026 4.373-.086 9.971-.505 20.052-2.462 28.953-7.137l155.955-89.937c7.817-4.909 16.606-8.323 25.75-9.678
    16.567-2.587 34.032 1.751 47.59 11.582 7.9 5.608 14.296 13.165 19.018 21.592 7.269 11.836 10.661 26.023 9.408 39.865-1.642 19.917-13.197
    38.731-30.209 49.213l-194.412 112.299c-7.203 4.016-14.151 8.495-21.564 12.125-14.193 6.648-29.981 9.461-45.596
    9.332-16.363-.168-32.939-3.424-47.459-11.18L336.18 880.452c-8.442-4.592-16.51-9.97-23.543-16.549-19.56-18.022-31.336-44.144-32.029-70.719l-.051-283.736c.134-8.424-.285-16.861.291-25.273
    1.353-15.746 6.899-30.939
    14.922-44.484 8.333-13.99 19.427-26.617 33.35-35.242l243.422-140.574c7.512-4.209 14.801-8.819 22.476-12.73 13.801-6.781 29.263-9.64 44.563-9.814z" fill="#fff"/>
</svg>
