<?xml version="1.0" encoding="UTF-8" standalone="no"?>
<svg xmlns:dc="http://purl.org/dc/elements/1.1/" xmlns:cc="http://creativecommons.org/ns#" xmlns:rdf="http://www.w3.org/1999/02/22-rdf-syntax-ns#" xmlns:svg="http://www.w3.org/2000/svg" xmlns="http://www.w3.org/2000/svg" xmlns:sodipodi="http://sodipodi.sourceforge.net/DTD/sodipodi-0.dtd" xmlns:inkscape="http://www.inkscape.org/namespaces/inkscape" width="1280" height="1280" viewBox="0 0 1280 1280" version="1.1" id="svg5528" inkscape:version="1.0.2-2 (e86c870879, 2021-01-15)" sodipodi:docname="commandos_white.svg" inkscape:export-filename="D:\_dev\_git\Playground\commandos\logo\commandos_white.png" inkscape:export-xdpi="96" inkscape:export-ydpi="96">
    <defs id="defs5522">
        <inkscape:path-effect effect="fillet_chamfer" id="path-effect2561" is_visible="true" lpeversion="1" satellites_param="F,0,0,1,0,26.458333,0,1 @ F,0,0,1,0,26.458333,0,1 @ F,0,0,1,0,26.458333,0,1 @ F,0,0,1,0,26.458333,0,1 @ F,0,0,1,0,26.458333,0,1 @ F,0,0,1,0,26.458333,0,1 | F,0,0,1,0,26.458333,0,1 @ F,0,0,1,0,26.458333,0,1 @ F,0,0,1,0,26.458333,0,1 @ F,0,0,1,0,26.458333,0,1 @ F,0,0,1,0,26.458333,0,1 @ F,0,0,1,0,26.458333,0,1 @ F,0,0,1,0,26.458333,0,1 @ F,0,0,1,0,26.458333,0,1 @ F,0,0,1,0,26.458333,0,1 @ F,0,0,1,0,26.458333,0,1 @ F,0,0,1,0,26.458333,0,1 @ F,0,0,1,0,26.458333,0,1 | F,0,0,1,0,26.458333,0,1 @ F,0,0,1,0,26.458333,0,1" unit="px" method="auto" mode="F" radius="100" chamfer_steps="1" flexible="false" use_knot_distance="true" apply_no_radius="true" apply_with_radius="true" only_selected="false" hide_knots="false" />
    </defs>
    <sodipodi:namedview id="base" pagecolor="#ffffff" bordercolor="#666666" borderopacity="1.0" inkscape:pageopacity="0.0" inkscape:pageshadow="2" inkscape:zoom="0.49497475" inkscape:cx="831.80188" inkscape:cy="296.77773" inkscape:document-units="px" inkscape:current-layer="layer1" inkscape:document-rotation="0" showgrid="false" units="px" scale-x="1" inkscape:pagecheckerboard="true" inkscape:snap-page="true" showguides="true" inkscape:guide-bbox="true" inkscape:window-width="2560" inkscape:window-height="1377" inkscape:window-x="2552" inkscape:window-y="-8" inkscape:window-maximized="1" inkscape:snap-nodes="true" inkscape:snap-grids="false" inkscape:snap-to-guides="false" />
    <metadata id="metadata5525">
        <rdf:RDF>
            <cc:Work rdf:about="">
                <dc:format>image/svg+xml</dc:format>
                <dc:type rdf:resource="http://purl.org/dc/dcmitype/StillImage" />
                <dc:title></dc:title>
            </cc:Work>
        </rdf:RDF>
    </metadata>
    <g inkscape:label="Layer 1" inkscape:groupmode="layer" id="layer1">
        <path id="path2824-3-4-74-2-7-6" style="display:inline;fill:#ffffff;fill-opacity:1;stroke:none;stroke-width:0.488161" inkscape:transform-center-x="2.5722973e-06" inkscape:transform-center-y="-1.194921e-05" d="m 640.1973,20.406778 a 84.552191,84.552166 0 0 0 -42.4727,11.32813 L 134.36519,299.25445 A 84.552205,84.55218 0 0 0 92.0898,372.47906 v 535.04297 a 84.552205,84.55218 0 0 0 42.27539,73.22265 L 597.7246,1248.266 a 84.552191,84.552166 0 0 0 84.5508,0 l 463.3594,-267.52132 a 84.552205,84.55218 0 0 0 42.2754,-73.22265 V 372.47906 a 84.552205,84.55218 0 0 0 -42.2754,-73.22461 L 682.2754,31.734908 a 84.552191,84.552166 0 0 0 -42.0781,-11.32813 z m -0.6172,220.921892 c 14.121,-0.1197 28.3665,2.1092 41.4902,7.43359 0.536,0.27389 1.073,0.5522 1.4824,-0.0664 71.5714,41.32407 143.1403,82.65128 214.711,123.97656 9.3971,4.94542 17.6711,12.08059 23.7129,20.83203 9.9849,14.21387 13.719,32.56604 10.3203,49.57812 -1.4714,7.91436 -4.7595,15.37844 -8.875,22.25782 -6.5648,12.16869 -17.063,22.19311 -29.5957,28.05664 -18.0585,8.64975 -40.1827,8.13668 -57.8301,-1.31641 -50.5319,-29.08217 -101.0226,-58.2361 -151.5078,-87.40039 -3.9028,-2.17615 -7.6591,-4.63467 -11.7266,-6.50195 -9.8215,-4.43382 -20.7009,-6.13377 -31.4238,-6.04297 -10.878,0.16348 -21.9392,2.04484 -31.7051,7.01953 -50.4124,28.97763 -100.7299,58.12128 -151.1172,87.14258 -4.4867,2.67176 -9.2054,5.00296 -13.3301,8.23828 -8.5232,6.60013 -15.1885,15.3556 -20.2617,24.81055 -4.8286,9.07142 -8.2593,19.0698 -8.7617,29.39453 -0.048,55.06738 -0.041,110.13532 -0.039,165.20312 0.018,6.04094 -0.022,12.08244 0.014,18.12305 -0.01,6.01918 1.2016,11.97484 3.0313,17.68945 0.1725,0.5234 0.433,1.29008 0.5507,1.66211 1.9596,5.62258 4.549,11.01784 7.6407,16.10352 5.5132,8.94532 12.4655,17.23926 21.3457,23 52.0906,30.19591 104.2768,60.228 156.3984,90.37109 6.9507,4.34156 14.8496,6.99717 22.9121,8.31641 2.0805,0.34583 4.5722,0.65629 6.6973,0.82617 2.2775,0.1912 4.5452,0.29869 6.8828,0.30469 1.4417,0.0106 3.0608,-0.0257 4.373,-0.0859 9.9707,-0.50467 20.0522,-2.46194 28.9532,-7.13672 52.0181,-29.91969 103.9739,-59.95217 155.955,-89.9375 7.8173,-4.90905 16.6055,-8.32277 25.75,-9.67773 16.5675,-2.58653 34.0322,1.75085 47.5899,11.58203 7.8996,5.6076 14.296,13.16491 19.0176,21.59179 7.2689,11.83643 10.6608,26.02331 9.4082,39.86524 -1.6419,19.91662 -13.1965,38.73091 -30.209,49.21289 -64.7877,37.46062 -129.5971,74.88549 -194.4121,112.29861 -7.2027,4.0161 -14.151,8.4953 -21.5645,12.125 -14.1931,6.6481 -29.9813,9.4612 -45.5957,9.332 -16.3631,-0.1685 -32.939,-3.4242 -47.459,-11.1797 -85.4203,-49.26994 -170.822,-98.57412 -256.2226,-147.87865 -8.4423,-4.59209 -16.5105,-9.96979 -23.543,-16.54882 -19.5596,-18.02208 -31.3365,-44.14404 -32.0293,-70.71875 -0.044,-94.57857 -0.048,-189.15761 -0.051,-283.73633 0.1336,-8.4237 -0.2846,-16.86058 0.291,-25.27344 1.3533,-15.74554 6.8993,-30.93917 14.9219,-44.48437 8.3328,-13.98958 19.4266,-26.61692 33.3496,-35.24219 81.1262,-46.88324 162.2634,-93.74661 243.4219,-140.57422 7.5116,-4.20879 14.8005,-8.81936 22.4765,-12.73047 13.8006,-6.78059 29.2633,-9.6397 44.5625,-9.81445 z" />
    </g>
</svg>
