<?xml version="1.0" encoding="UTF-8" standalone="no"?>
<svg xmlns:dc="http://purl.org/dc/elements/1.1/" xmlns:cc="http://creativecommons.org/ns#" xmlns:rdf="http://www.w3.org/1999/02/22-rdf-syntax-ns#" xmlns:svg="http://www.w3.org/2000/svg" xmlns="http://www.w3.org/2000/svg" xmlns:sodipodi="http://sodipodi.sourceforge.net/DTD/sodipodi-0.dtd" xmlns:inkscape="http://www.inkscape.org/namespaces/inkscape" width="210mm" height="297mm" viewBox="0 0 210 297" version="1.1" id="svg8" inkscape:version="1.0.2-2 (e86c870879, 2021-01-15)" sodipodi:docname="rebase.svg">
    <defs id="defs2">
        <marker style="overflow:visible" id="marker1993" refX="0" refY="0" orient="auto" inkscape:stockid="Arrow2Mend" inkscape:isstock="true">
            <path transform="scale(-0.6)" d="M 8.7185878,4.0337352 -2.2072895,0.01601326 8.7185884,-4.0017078 c -1.7454984,2.3720609 -1.7354408,5.6174519 -6e-7,8.035443 z" style="fill:#000000;fill-opacity:1;fill-rule:evenodd;stroke:#000000;stroke-width:0.625;stroke-linejoin:round;stroke-opacity:1" id="path1991" />
        </marker>
        <marker style="overflow:visible" id="Legs" refX="0.0" refY="0.0" orient="auto" inkscape:stockid="Legs" inkscape:isstock="true">
            <g transform="scale(-0.7)" id="g1147" style="stroke:#000000;stroke-opacity:1;fill:#000000;fill-opacity:1">
                <g transform="matrix(0,-1.000000,-1.000000,0,20.70862,21.31391)" id="g1141" style="stroke:#000000;stroke-opacity:1;fill:#000000;fill-opacity:1">
                    <path style="fill:#000000;fill-opacity:1;fill-rule:evenodd;stroke:#000000;stroke-width:1pt;stroke-opacity:1" d="M 21.221250,20.675360 C 14.311099,25.396517 18.766725,27.282204 15.380179,34.118595" id="path1137" />
                    <path style="fill:#000000;fill-opacity:1;fill-rule:evenodd;stroke:#000000;stroke-width:1pt;stroke-opacity:1" d="M 21.398110,20.548120 C 20.037601,28.895644 24.934182,29.318060 25.903151,34.373078" id="path1139" />
                </g>
                <path style="fill:#000000;fill-rule:evenodd;stroke-width:1pt;stroke:#000000;stroke-opacity:1;fill-opacity:1" d="M -14.090070,-6.7318716 L -15.012238,-2.6884886 L -11.049487,-3.9115586 L -14.090070,-6.7318716 z " id="path1143" />
                <path style="fill:#000000;fill-rule:evenodd;stroke-width:1pt;stroke:#000000;stroke-opacity:1;fill-opacity:1" d="M -15.215679,4.5567534 L -13.341552,8.2563664 L -11.074678,4.7835114 L -15.215679,4.5567534 z " id="path1145" />
            </g>
        </marker>
        <marker style="overflow:visible" id="Scissors" refX="0.0" refY="0.0" orient="auto" inkscape:stockid="Scissors" inkscape:isstock="true">
            <path style="fill:#000000;stroke:#000000;stroke-opacity:1;fill-opacity:1" d="M 9.0898857,-3.6061018 C 8.1198849,-4.7769976 6.3697607,-4.7358294 5.0623558,-4.2327734 L -3.1500488,-1.1548705 C -5.5383421,-2.4615840 -7.8983361,-2.0874077 -7.8983361,-2.7236578 C -7.8983361,-3.2209742 -7.4416699,-3.1119800 -7.5100293,-4.4068519 C -7.5756648,-5.6501286 -8.8736064,-6.5699315 -10.100428,-6.4884954 C -11.327699,-6.4958500 -12.599867,-5.5553341 -12.610769,-4.2584343 C -12.702194,-2.9520479 -11.603560,-1.7387447 -10.304005,-1.6532027 C -8.7816644,-1.4265411 -6.0857470,-2.3487593 -4.8210600,-0.082342643 C -5.7633447,1.6559151 -7.4350844,1.6607341 -8.9465707,1.5737277 C -10.201445,1.5014928 -11.708664,1.8611256 -12.307219,3.0945882 C -12.885586,4.2766744 -12.318421,5.9591904 -10.990470,6.3210002 C -9.6502788,6.8128279 -7.8098011,6.1912892 -7.4910978,4.6502760 C -7.2454393,3.4624530 -8.0864637,2.9043186 -7.7636052,2.4731223 C -7.5199917,2.1477623 -5.9728246,2.3362771 -3.2164999,1.0982979 L 5.6763468,4.2330688 C 6.8000164,4.5467672 8.1730685,4.5362646 9.1684433,3.4313614 L -0.051640930,-0.053722219 L 9.0898857,-3.6061018 z M -9.2179159,-5.5066058 C -7.9233569,-4.7838060 -8.0290767,-2.8230356 -9.3743431,-2.4433169 C -10.590861,-2.0196559 -12.145370,-3.2022863 -11.757521,-4.5207817 C -11.530373,-5.6026336 -10.104134,-6.0014137 -9.2179159,-5.5066058 z M -9.1616516,2.5107591 C -7.8108215,3.0096239 -8.0402087,5.2951947 -9.4138723,5.6023681 C -10.324932,5.9187072 -11.627422,5.4635705 -11.719569,4.3902287 C -11.897178,3.0851737 -10.363484,1.9060805 -9.1616516,2.5107591 z " id="schere" />
        </marker>
        <marker style="overflow:visible;" id="marker1731" refX="0.0" refY="0.0" orient="auto" inkscape:stockid="Arrow2Mend" inkscape:isstock="true">
            <path transform="scale(0.6) rotate(180) translate(0,0)" d="M 8.7185878,4.0337352 L -2.2072895,0.016013256 L 8.7185884,-4.0017078 C 6.9730900,-1.6296469 6.9831476,1.6157441 8.7185878,4.0337352 z " style="fill-rule:evenodd;stroke-width:0.625;stroke-linejoin:round;stroke:#000000;stroke-opacity:1;fill:#000000;fill-opacity:1" id="path1729" />
        </marker>
        <marker style="overflow:visible;" id="marker1673" refX="0.0" refY="0.0" orient="auto" inkscape:stockid="Arrow2Mend" inkscape:isstock="true">
            <path transform="scale(0.6) rotate(180) translate(0,0)" d="M 8.7185878,4.0337352 L -2.2072895,0.016013256 L 8.7185884,-4.0017078 C 6.9730900,-1.6296469 6.9831476,1.6157441 8.7185878,4.0337352 z " style="fill-rule:evenodd;stroke-width:0.625;stroke-linejoin:round;stroke:#000000;stroke-opacity:1;fill:#000000;fill-opacity:1" id="path1671" />
        </marker>
        <marker style="overflow:visible" id="marker1621" refX="0" refY="0" orient="auto" inkscape:stockid="Arrow2Mend" inkscape:isstock="true">
            <path transform="scale(-0.6)" d="M 8.7185878,4.0337352 -2.2072895,0.01601326 8.7185884,-4.0017078 c -1.7454984,2.3720609 -1.7354408,5.6174519 -6e-7,8.035443 z" style="fill:#000000;fill-opacity:1;fill-rule:evenodd;stroke:#000000;stroke-width:0.625;stroke-linejoin:round;stroke-opacity:1" id="path1619" />
        </marker>
        <marker style="overflow:visible;" id="Arrow2Mend" refX="0.0" refY="0.0" orient="auto" inkscape:stockid="Arrow2Mend" inkscape:isstock="true">
            <path transform="scale(0.6) rotate(180) translate(0,0)" d="M 8.7185878,4.0337352 L -2.2072895,0.016013256 L 8.7185884,-4.0017078 C 6.9730900,-1.6296469 6.9831476,1.6157441 8.7185878,4.0337352 z " style="fill-rule:evenodd;stroke-width:0.625;stroke-linejoin:round;stroke:#000000;stroke-opacity:1;fill:#000000;fill-opacity:1" id="path965" />
        </marker>
        <marker style="overflow:visible;" id="Arrow2Lend" refX="0.0" refY="0.0" orient="auto" inkscape:stockid="Arrow2Lend" inkscape:isstock="true">
            <path transform="scale(1.1) rotate(180) translate(1,0)" d="M 8.7185878,4.0337352 L -2.2072895,0.016013256 L 8.7185884,-4.0017078 C 6.9730900,-1.6296469 6.9831476,1.6157441 8.7185878,4.0337352 z " style="fill-rule:evenodd;stroke-width:0.625;stroke-linejoin:round;stroke:#000000;stroke-opacity:1;fill:#000000;fill-opacity:1" id="path959" />
        </marker>
        <marker style="overflow:visible;" id="Arrow1Lend" refX="0.0" refY="0.0" orient="auto" inkscape:stockid="Arrow1Lend" inkscape:isstock="true">
            <path transform="scale(0.8) rotate(180) translate(12.5,0)" style="fill-rule:evenodd;stroke:#000000;stroke-width:1pt;stroke-opacity:1;fill:#000000;fill-opacity:1" d="M 0.0,0.0 L 5.0,-5.0 L -12.5,0.0 L 5.0,5.0 L 0.0,0.0 z " id="path941" />
        </marker>
        <marker style="overflow:visible" id="Arrow2Mend-1" refX="0" refY="0" orient="auto" inkscape:stockid="Arrow2Mend" inkscape:isstock="true">
            <path transform="scale(-0.6)" d="M 8.7185878,4.0337352 -2.2072895,0.01601326 8.7185884,-4.0017078 c -1.7454984,2.3720609 -1.7354408,5.6174519 -6e-7,8.035443 z" style="fill:#000000;fill-opacity:1;fill-rule:evenodd;stroke:#000000;stroke-width:0.625;stroke-linejoin:round;stroke-opacity:1" id="path965-1" />
        </marker>
    </defs>
    <sodipodi:namedview id="base" pagecolor="#ffffff" bordercolor="#666666" borderopacity="1.0" inkscape:pageopacity="0.0" inkscape:pageshadow="2" inkscape:zoom="0.98994949" inkscape:cx="-121.07027" inkscape:cy="363.81474" inkscape:document-units="mm" inkscape:current-layer="layer1" inkscape:document-rotation="0" showgrid="false" inkscape:pagecheckerboard="true" showborder="false" showguides="true" inkscape:guide-bbox="true" inkscape:snap-grids="true" inkscape:snap-to-guides="true" inkscape:snap-bbox="false" inkscape:snap-text-baseline="true" inkscape:snap-object-midpoints="true" inkscape:window-width="2560" inkscape:window-height="1377" inkscape:window-x="-8" inkscape:window-y="-8" inkscape:window-maximized="1">
        <sodipodi:guide position="-91.673448,228.84627" orientation="0,-1" id="guide847" />
        <sodipodi:guide position="-146.19643,260.11681" orientation="0,-1" id="guide849" />
    </sodipodi:namedview>
    <metadata id="metadata5">
        <rdf:RDF>
            <cc:Work rdf:about="">
                <dc:format>image/svg+xml</dc:format>
                <dc:type rdf:resource="http://purl.org/dc/dcmitype/StillImage" />
                <dc:title></dc:title>
            </cc:Work>
        </rdf:RDF>
    </metadata>
    <g inkscape:label="Layer 1" inkscape:groupmode="layer" id="layer1" style="display:inline">
        <path style="fill:none;stroke:#000000;stroke-width:1.323;stroke-linecap:butt;stroke-linejoin:miter;stroke-miterlimit:4;stroke-dasharray:5.292,5.292;stroke-dashoffset:0;stroke-opacity:1" d="M -4.4218879,68.153732 H 90.714855" id="path845-79" />
        <text xml:space="preserve" style="font-style:normal;font-weight:normal;font-size:10.5833px;line-height:1.25;font-family:sans-serif;fill:#000000;fill-opacity:1;stroke:none;stroke-width:0.264583" x="-114.05733" y="70.953079" id="text837">
            <tspan sodipodi:role="line" id="tspan835" x="-114.05733" y="70.953079" style="stroke-width:0.264583">master</tspan>
        </text>
        <text xml:space="preserve" style="font-style:normal;font-weight:normal;font-size:10.5833px;line-height:1.25;font-family:sans-serif;fill:#000000;fill-opacity:1;stroke:none;stroke-width:0.264583" x="-75.740852" y="39.672329" id="text841">
            <tspan sodipodi:role="line" id="tspan839" x="-75.740852" y="39.672329" style="stroke-width:0.264583">feature</tspan>
        </text>
        <path style="fill:none;stroke:#000000;stroke-width:1.32292;stroke-linecap:butt;stroke-linejoin:miter;stroke-miterlimit:4;stroke-dasharray:none;stroke-opacity:1" d="M -69.547617,68.153731 H -2.8535824" id="path845" />
        <ellipse style="fill:#ffffff;fill-opacity:1;stroke:#000000;stroke-width:1.32292;stroke-miterlimit:4;stroke-dasharray:none;stroke-opacity:1" id="path833" cy="68.153732" cx="-46.778847" rx="4.5454903" ry="4.4224286" />
        <ellipse style="fill:#00ffc1;fill-opacity:1;stroke:#000000;stroke-width:1.32292;stroke-miterlimit:4;stroke-dasharray:none;stroke-opacity:1" id="path833-0" cy="68.153732" cx="-25.588554" rx="4.5454903" ry="4.4224286" />
        <path style="fill:none;stroke:#000000;stroke-width:1.32292;stroke-linecap:butt;stroke-linejoin:miter;stroke-miterlimit:4;stroke-dasharray:none;stroke-opacity:1" d="M -6.7573933,36.883193 H 36.261798" id="path845-7" />
        <ellipse style="fill:#ffd201;fill-opacity:1;stroke:#000000;stroke-width:1.32292;stroke-miterlimit:4;stroke-dasharray:none;stroke-opacity:1" id="path833-1" cy="36.88319" cx="-5.1552916" rx="4.5454903" ry="4.4224286" />
        <ellipse style="fill:#ffd201;fill-opacity:1;stroke:#000000;stroke-width:1.32292;stroke-miterlimit:4;stroke-dasharray:none;stroke-opacity:1" id="path833-0-4" cy="36.88319" cx="16.035" rx="4.5454903" ry="4.4224286" />
        <ellipse style="fill:#ffd201;fill-opacity:1;stroke:#000000;stroke-width:1.32292;stroke-miterlimit:4;stroke-dasharray:none;stroke-opacity:1" id="path833-0-7-8" cy="36.88319" cx="37.201668" rx="4.5454903" ry="4.4224286" />
        <path style="fill:none;stroke:#000000;stroke-width:1.32292;stroke-linecap:butt;stroke-linejoin:miter;stroke-miterlimit:4;stroke-dasharray:none;stroke-opacity:1;marker-end:url(#marker1993)" d="M -40.774088,63.652563 -12.42185,42.352367" id="path936" />
        <ellipse style="fill:#00ffc1;fill-opacity:1;stroke:#000000;stroke-width:1.32292;stroke-miterlimit:4;stroke-dasharray:none;stroke-opacity:1" id="path833-0-7" cy="68.153732" cx="-4.4218879" rx="4.5454903" ry="4.4224286" />
    </g>
    <g inkscape:groupmode="layer" id="layer2" inkscape:label="Layer 2" style="display:none">
        <path style="fill:none;stroke:#000000;stroke-width:1.32292;stroke-linecap:butt;stroke-linejoin:miter;stroke-miterlimit:4;stroke-dasharray:none;stroke-dashoffset:0;stroke-opacity:1" d="M -4.4218863,68.153732 H 90.714853" id="path845-79-2" />
        <text xml:space="preserve" style="font-style:normal;font-weight:normal;font-size:10.5833px;line-height:1.25;font-family:sans-serif;fill:#000000;fill-opacity:1;stroke:none;stroke-width:0.264583" x="-114.05733" y="70.953079" id="text837-8">
            <tspan sodipodi:role="line" id="tspan835-9" x="-114.05733" y="70.953079" style="stroke-width:0.264583">master</tspan>
        </text>
        <path style="fill:none;stroke:#000000;stroke-width:1.32292;stroke-linecap:butt;stroke-linejoin:miter;stroke-miterlimit:4;stroke-dasharray:none;stroke-opacity:1" d="M -69.547614,68.153731 H -2.8535763" id="path845-6" />
        <ellipse style="fill:#ffffff;fill-opacity:1;stroke:#000000;stroke-width:1.32292;stroke-miterlimit:4;stroke-dasharray:none;stroke-opacity:1" id="path833-14" cy="68.153732" cx="-46.778839" rx="4.5454903" ry="4.4224286" />
        <ellipse style="fill:#00ffc1;fill-opacity:1;stroke:#000000;stroke-width:1.32292;stroke-miterlimit:4;stroke-dasharray:none;stroke-opacity:1" id="path833-0-1" cy="68.153732" cx="-25.588549" rx="4.5454903" ry="4.4224286" />
        <ellipse style="fill:#ffd201;fill-opacity:1;stroke:#000000;stroke-width:1.32292;stroke-miterlimit:4;stroke-dasharray:none;stroke-opacity:1" id="path833-1-7" cy="68.153732" cx="16.744781" rx="4.5454903" ry="4.4224286" />
        <ellipse style="fill:#ffd201;fill-opacity:1;stroke:#000000;stroke-width:1.32292;stroke-miterlimit:4;stroke-dasharray:none;stroke-opacity:1" id="path833-0-4-3" cy="68.153732" cx="37.93507" rx="4.5454903" ry="4.4224286" />
        <ellipse style="fill:#ffd201;fill-opacity:1;stroke:#000000;stroke-width:1.32292;stroke-miterlimit:4;stroke-dasharray:none;stroke-opacity:1" id="path833-0-7-8-2" cy="68.153732" cx="59.101746" rx="4.5454903" ry="4.4224286" />
        <ellipse style="fill:#00ffc1;fill-opacity:1;stroke:#000000;stroke-width:1.32292;stroke-miterlimit:4;stroke-dasharray:none;stroke-opacity:1" id="path833-0-7-1" cy="68.153732" cx="-4.4218845" rx="4.5454903" ry="4.4224286" />
    </g>
</svg>
