<svg version="1.1" id="Capa_1" xmlns="http://www.w3.org/2000/svg" xmlns:xlink="http://www.w3.org/1999/xlink" x="0px" y="0px" width="386.334px" height="386.334px" viewBox="0 0 386.334 386.334" style="enable-background:new 0 0 386.334 386.334;" xml:space="preserve">
    <path d="M335.46,292.346c-16.523-17.136-31.212-35.496-43.452-55.692c-2.447-3.672-7.344-5.508-11.016-3.06
			c-21.42,15.912-41.616,33.66-65.484,45.288c28.765-58.14,60.589-115.668,77.112-178.704c1.836-7.344-7.956-14.076-13.464-7.956
			c-52.632,61.812-108.937,119.952-168.913,175.032c47.736-59.977,99.145-118.116,121.176-192.168
			c2.448-7.344-5.508-11.628-11.628-9.18c-66.708,28.152-129.132,67.932-198.9,88.74c14.688-34.884,33.66-66.708,59.364-94.86
			c4.284-4.284-2.448-11.016-6.732-6.732C42.312,84.266,18.444,122.21,0.696,162.602c-2.448,6.12,1.836,12.852,8.568,11.628
			C80.256,156.481,143.904,117.313,210,87.326c-32.436,89.964-108.936,157.284-160.956,235.62
			c-5.508,7.956,6.12,15.301,12.852,9.792c72.216-61.812,140.148-129.132,203.796-200.124
			c-19.584,54.468-48.96,105.264-73.44,157.896c-3.06,6.12,1.836,14.076,9.181,11.628c31.212-9.18,55.691-29.988,81.396-48.96
			c12.24,18.36,25.704,35.496,41.004,51.408C331.176,311.93,342.805,300.302,335.46,292.346z" />
    <path d="M386.256,324.781c-4.283-24.479-9.792-57.527-26.928-76.5c-4.896-5.508-14.076,0-11.628,6.732
			c3.672,12.24,10.404,23.256,14.076,35.496c3.06,9.18,5.508,18.36,7.344,28.152c-22.644-0.612-45.288-3.673-67.932-6.732
			c-7.344-0.612-9.181,11.628-1.836,12.852c26.315,5.509,52.632,9.181,79.56,9.792C383.809,335.186,386.868,329.678,386.256,324.781
			z" />
</svg>
