<svg version="1.1" id="Capa_1" xmlns="http://www.w3.org/2000/svg" xmlns:xlink="http://www.w3.org/1999/xlink" x="0px" y="0px" width="362.114px" height="362.114px" viewBox="0 0 362.114 362.114" style="enable-background:new 0 0 362.114 362.114;" xml:space="preserve">
    <path d="M358.291,178.135c-23.256-10.404-42.228-25.704-63.035-39.78c-3.673-2.448-11.017,0-11.629,4.896
		c-1.224,9.18-3.06,18.36-3.672,27.54c-23.867,0-48.348,0-72.216,0c-3.672,0-6.731,2.448-7.344,5.508
		c-9.792,34.883-14.688,73.44-31.212,105.875c-0.612,1.225-1.224,1.836-1.224,2.449c-1.224-3.672-1.836-7.957-3.06-11.016
		c-1.836-8.568-3.06-17.137-3.672-26.316c-0.612-14.688,0-29.988,0-44.676c0-14.689,5.508-168.913-36.108-140.761
		c-38.556,25.704-28.152,86.292-24.48,124.235c1.836,19.584,2.448,39.781-6.732,58.141c-12.852,26.316-21.42-4.283-23.256-15.912
		c-4.284-23.256-3.672-47.736-4.896-70.992c-0.612-12.24-6.12-82.008-34.272-57.528c-42.84,36.72-33.048,107.711-22.032,156.061
		c1.224,6.119,10.404,3.672,9.792-2.449c-4.896-34.883-8.568-70.379,0-105.264c1.836-6.12,20.196-49.572,26.928-28.152
		c3.672,12.24,4.284,25.092,5.508,37.944c1.836,26.315-6.12,94.249,20.808,110.772c39.78,25.092,45.288-64.873,44.064-82.621
		c-2.448-35.495-10.404-68.543,9.18-100.979c11.016-18.36,13.464-7.344,16.524,7.956c7.344,37.332,4.896,77.112,4.896,114.443
		c-0.612,28.766-3.672,61.201,9.792,87.518c14.076,28.764,34.273-22.645,36.72-31.213c6.732-20.195,11.628-41.004,16.524-61.812
		c1.224-4.283,1.836-8.568,3.06-12.852c2.448-8.568-0.611-3.672,6.12-3.672c20.196,0,40.393,0,60.588,0
		c0,6.119,1.225,11.629,2.448,17.137c-1.224,4.283,2.448,8.566,7.344,7.344c22.032-6.732,44.064-14.076,67.32-17.748
		C362.575,191.598,364.411,180.583,358.291,178.135z M293.42,192.211c0.611-11.628,1.836-22.645,3.672-33.66
		c11.016,7.956,22.644,15.912,34.271,23.256c-6.731,1.836-13.464,3.061-20.196,5.508
		C305.048,188.539,298.928,189.762,293.42,192.211z" />
</svg>
